<?xml version="1.0" encoding="utf-8"?>
<!-- Generator: Adobe Illustrator 19.0.0, SVG Export Plug-In . SVG Version: 6.00 Build 0)  -->
<svg version="1.1" id="Layer_1" xmlns="http://www.w3.org/2000/svg" xmlns:xlink="http://www.w3.org/1999/xlink" x="0px" y="0px"
	 viewBox="0 0 306.9 190.5" style="enable-background:new 0 0 306.9 190.5;" xml:space="preserve">
<style type="text/css">
	.st0{fill-rule:evenodd;clip-rule:evenodd;fill:#B36B40;}
</style>
<path id="XMLID_2_" class="st0" d="M114.5,86.5c13.2-2.6,26.8-3.9,40.1-4.4c24.7-0.8,49.7-3,74.1-7.4c15.7-2.8,31.6-6.7,46.5-12.3
	c8.2-3.1,16.7-6.8,24.2-11.5c2.2-1.4,5.1-3.3,7-5.2l0.6-0.5v3.9c-1.9,1.6-4.1,3.1-6,4.3c-7.6,4.8-16.2,8.7-24.7,11.8
	c-15.1,5.6-31.1,9.5-47,12.4c-24.5,4.4-49.6,6.6-74.5,7.4c-15.6,0.5-31.5,2.3-46.8,5.8c-1.2,0.8-2.4,1.7-3.5,2.5
	c-15.1,11.4-26.7,26.6-30.6,45.4c-3.7,17.9,0.5,35.9,9.1,51.8h-3.2c-8.4-16.2-12.4-34.3-8.7-52.4c3.8-18.6,15-33.9,29.7-45.6
	c-0.3,0.1-0.6,0.2-1,0.3c-15.1,7.7-28.5,18.3-38.9,32.8c-7.8,10.8-13.3,23.1-16.3,36.1c-2.1,9.1-3.1,19.5-1.7,28.8h-2.9
	c-1.3-9.5-0.3-20.1,1.8-29.4c3-13.3,8.8-26,16.7-37.1c8-11.2,17.8-20.1,28.7-27.2c-19,6.7-36.6,16.8-51.2,31.3
	c-10,9.9-18.2,21.4-24.1,34.2c-4.1,8.9-7.3,18.5-9,28.2H0c1.7-10.1,5-20.2,9.3-29.4c6.1-13.1,14.4-24.9,24.7-35
	c18.1-17.9,40.6-29.2,64.7-35.9c4.8-2.4,9.7-4.5,14.8-6.4c18.3-10.9,39.7-17.4,60.4-21c34.4-6.1,68.7-17.2,99.3-34.3
	c8.6-4.8,17-10.1,24.8-16c2.8-2.1,5.8-4.5,8.4-6.9l0.5-0.5v3.9c-2.3,2-4.8,4-7.2,5.8c-7.9,6-16.4,11.4-25.1,16.2
	c-30.9,17.3-65.4,28.6-100.2,34.7c-15.3,2.7-31.1,7-45.7,13.5c11.3-2.9,22.9-4.7,34.5-5.6c23-1.8,46-5.2,68.2-11.3
	c15.1-4.1,30.1-9.5,44-16.7c8.3-4.3,16.4-9.3,23.6-15.2c1.9-1.5,3.7-3.1,5.4-4.8c0.6-0.6,1.2-1.2,1.7-1.9l0.6-0.8v4.3
	c-1.9,1.9-4.1,3.8-6,5.4c-7.3,6-15.7,11.2-24.1,15.5c-14.1,7.3-29.3,12.7-44.6,16.9c-22.4,6.1-45.6,9.6-68.8,11.4
	c-16.6,1.3-33.2,4.4-48.7,10C114.6,86.4,114.5,86.5,114.5,86.5z"/>
</svg>
