<?xml version="1.0" encoding="utf-8"?>
<!-- Generator: Adobe Illustrator 19.0.0, SVG Export Plug-In . SVG Version: 6.00 Build 0)  -->
<svg version="1.1" id="Layer_1" xmlns="http://www.w3.org/2000/svg" xmlns:xlink="http://www.w3.org/1999/xlink" x="0px" y="0px"
	 viewBox="0 0 306.9 190.5" style="enable-background:new 0 0 306.9 190.5;" xml:space="preserve">
<style type="text/css">
	.st0{fill-rule:evenodd;clip-rule:evenodd;fill:#B36B40;}
</style>
<path id="XMLID_18_" class="st0" d="M306.9,156c-0.7,0.9-1.4,1.9-2,2.6c-3.8,4.6-8.6,8.6-13.6,11.9c-16.1,10.8-36.6,16.8-56.4,20
	h-18.9l0-0.4l1.4-0.1c24-2.3,51.9-8.2,72.3-21.8c4.7-3.2,9.3-7,13-11.3c1.1-1.3,2.6-3.3,3.4-4.9l0.6-1.3l0.2,0.1V156z"/>
<path id="XMLID_17_" class="st0" d="M306.9,140.3c-0.9,1.1-1.9,2.2-2.9,3.2c-4.2,4.4-9.2,8.3-14.3,11.7
	C270.4,167.9,246.8,174,224,176c-12.6,1.1-25.3,2.6-37.8,4.9c-7.5,1.4-15.2,3.1-22.5,5.4c-3.5,1.1-7.3,2.5-10.6,4.3H148l0.2-0.2
	c0.9-0.8,2.2-1.6,3.3-2.2c3.5-1.9,7.5-3.4,11.3-4.6c7.4-2.4,15.2-4.1,22.9-5.5c12.6-2.3,25.4-3.8,38.1-4.9
	c22.3-1.9,45.5-7.8,64.4-20.3c4.9-3.3,9.7-7,13.8-11.3c1.4-1.5,3.1-3.3,4.2-5l0.7-1.1V140.3z"/>
<path id="XMLID_16_" class="st0" d="M306.9,129c-0.8,1-1.7,1.9-2.4,2.7c-4,4.2-8.8,7.8-13.8,10.8c-20,12.2-45.7,17-68.8,18.5
	c-21.8,1.3-47.1,5.7-66.1,17.2c-4.4,2.7-8.7,5.9-12.3,9.7c-0.7,0.8-1.6,1.7-2.3,2.7h-3.4c0.9-1.6,2.4-3.3,3.6-4.6
	c3.7-4,8.2-7.4,12.9-10.2c19.4-11.7,45.1-16.2,67.4-17.6c22.6-1.4,47.8-6.1,67.5-18c4.7-2.9,9.4-6.3,13.2-10.3
	c1.2-1.3,2.8-3,3.7-4.5l0.7-1.2l0,0V129z"/>
</svg>
