<?xml version="1.0" encoding="utf-8"?>
<!-- Generator: Adobe Illustrator 19.0.0, SVG Export Plug-In . SVG Version: 6.00 Build 0)  -->
<svg version="1.1" id="Layer_1" xmlns="http://www.w3.org/2000/svg" xmlns:xlink="http://www.w3.org/1999/xlink" x="0px" y="0px"
	 viewBox="0 0 57.4 224.1" style="enable-background:new 0 0 57.4 224.1;" xml:space="preserve">
<style type="text/css">
	.st0{fill-rule:evenodd;clip-rule:evenodd;fill:#B36B40;}
	.st1{fill:#FFFFFF;}
	.st2{font-family:'TitilliumWeb-SemiBold';}
	.st3{font-size:4.6807px;}
</style>
<path id="XMLID_68_" class="st0" d="M28.9,123.1l0.8,0c12.6,0.4,23.3,9.1,26.4,21.3H34.4l-0.3,0.6c-1,2-3,3.2-5.2,3.2
	c-2.2,0-4.2-1.3-5.2-3.2l-0.3-0.6H1.6C4.6,132,15.9,123.1,28.9,123.1L28.9,123.1z M29.4,122.1c13.8,0.6,25.3,9.7,28,23.4H35
	c-1.1,2.3-3.5,3.8-6.2,3.8c-2.7,0-5-1.6-6.2-3.8H0.2c2.6-13.2,14.2-23.2,28.2-23.4c0-21.8,0.1-30.9,0.1-52.7c0-4.1-0.8-7.8-2.1-11.7
	c-1.1-3.3-2.5-6.5-3.3-9.9c-1.9-7.5,0-13.6,4-20.1c4.1-6.6,6.1-14.1,3.4-21.6C29.8,4,28.8,2,27.4,0.2L27.3,0h1
	c1.3,1.8,2.3,3.8,3.1,5.8c2.7,7.8,0.7,15.5-3.5,22.3c-2,3.3-3.8,7-4.4,10.9c-0.5,3-0.3,5.7,0.5,8.6c0.8,3.3,2.2,6.5,3.3,9.8
	c1.3,3.9,2.1,7.7,2.1,11.9c0,21.8-0.1,30.9-0.1,52.7L29.4,122.1z"/>
<path id="XMLID_13_" class="st1" d="M42.5,175v-1h14.8v1h-6.8v18.9h-1.1V175H42.5z M12.5,191.5c-0.6-0.9-1-2-1.2-3.1
	c-0.2-1.2-0.3-2.6-0.3-4.4c0-3.5,0.6-6.1,1.7-7.7c1.1-1.7,3.2-2.5,6.2-2.5s5.1,0.8,6.2,2.5c1.1,1.7,1.7,4.3,1.7,7.8
	c0,3.6-0.6,6.1-1.7,7.7c-1.1,1.6-3.2,2.3-6.3,2.3C15.7,194.1,13.6,193.3,12.5,191.5z M13.3,190.8c0.5,0.8,1.2,1.4,2.1,1.8
	c0.9,0.4,2.1,0.6,3.5,0.6c1.4,0,2.6-0.2,3.5-0.5c0.9-0.3,1.6-0.9,2.1-1.7c0.5-0.8,0.8-1.7,1-2.8c0.2-1.1,0.3-2.4,0.3-4.1
	c0-3.2-0.5-5.5-1.4-7c-1-1.5-2.7-2.3-5.4-2.3c-2.7,0-4.6,0.8-5.5,2.5c-0.5,0.8-0.8,1.8-1,2.8c-0.2,1.1-0.3,2.4-0.3,4s0.1,2.9,0.3,4
	C12.5,189,12.8,190,13.3,190.8z M11.4,193.9H0.2V174h1.1v18.9h10.1V193.9z M39.1,156.9c0-1.6-0.4-2.8-1.2-3.6
	c-0.8-0.7-2-1.1-3.7-1.1h-6.2v9.7h6.2C37.5,161.9,39.1,160.2,39.1,156.9z M28.1,162.8v8.2h-1v-19.8h7.2c2,0,3.5,0.5,4.5,1.4
	s1.5,2.3,1.5,4.3c0,3.3-1.4,5.3-4.2,5.8l4.5,8.4h-1.2l-4.5-8.2H28.1z M10.2,170.1h16.1v1H9.9L10.2,170.1z M15.5,151.2h10.7v1h-11
	L15.5,151.2z M14,156.8h12.3v1H13.7L14,156.8z M13.8,151.2h1L9.2,171H5.9l-5.6-19.8h1l5.3,18.9h1.8L13.8,151.2z M40.6,170.1h16.8v1
	H41.1L40.6,170.1z M39.5,151.2h17.9v1H40.2L39.5,151.2z M41.3,156.8h16.1v1H41.3L41.3,156.8z M27.2,179.6h13.9v1H27.3L27.2,179.6z
	 M23.4,174h17.7v1H24.8L23.4,174z"/>
<path id="XMLID_10_" class="st0" d="M34.4,200.7h2.5h19.2c-3,12.2-13.8,20.9-26.4,21.3l-0.9,0c-12.9,0-24.2-8.9-27.3-21.3h14.3h7.4
	H34.4z M29.7,223.1c13.7-0.4,25.1-10.3,27.7-23.4H36.9H35h-1.2h-9.9h-1.2h-6.8h-1.7H0.2c2.7,13.3,14.4,23.4,28.6,23.4
	C29.1,223.1,29.4,223.1,29.7,223.1z"/>
<text id="XMLID_9_" transform="matrix(1 0 0 1.0864 4.811441e-005 198.6333)" class="st1 st2 st3">C</text>
<text id="XMLID_8_" transform="matrix(1 0 0 1.0864 8.0064 198.6333)" class="st1 st2 st3">O</text>
<text id="XMLID_7_" transform="matrix(1 0 0 1.0864 16.5743 198.6333)" class="st1 st2 st3">L</text>
<text id="XMLID_6_" transform="matrix(1 0 0 1.0864 24.295 198.6333)" class="st1 st2 st3">I</text>
<text id="XMLID_5_" transform="matrix(1 0 0 1.0864 31.0518 198.6333)" class="st1 st2 st3">V</text>
<text id="XMLID_4_" transform="matrix(1 0 0 1.0864 39.3296 198.6333)" class="st1 st2 st3">I</text>
<text id="XMLID_3_" transform="matrix(1 0 0 1.0864 46.0865 198.6333)" class="st1 st2 st3">N</text>
<text id="XMLID_2_" transform="matrix(1 0 0 1.0864 54.795 198.6333)" class="st1 st2 st3">G</text>
</svg>
